<?xml version="1.0" standalone="no"?>
<!DOCTYPE svg PUBLIC "-//W3C//DTD SVG 20010904//EN"
 "http://www.w3.org/TR/2001/REC-SVG-20010904/DTD/svg10.dtd">
<svg version="1.0" xmlns="http://www.w3.org/2000/svg"
 width="833.000000pt" height="1280.000000pt" viewBox="0 0 833.000000 1280.000000"
 preserveAspectRatio="xMidYMid meet">
<metadata>
Created by potrace 1.15, written by Peter Selinger 2001-2017
</metadata>
<g transform="translate(0.000000,1280.000000) scale(0.100000,-0.100000)"
fill="#000000" stroke="none">
<path d="M4020 12794 c-19 -2 -84 -9 -145 -14 -60 -6 -171 -22 -245 -36 -611
-113 -1133 -377 -1530 -774 -412 -411 -638 -898 -711 -1525 -19 -159 -16 -492
5 -645 74 -543 295 -1018 669 -1438 144 -162 382 -368 543 -469 24 -15 44 -30
44 -33 0 -3 -47 -30 -103 -60 -213 -115 -485 -308 -716 -509 -1133 -984 -1868
-2664 -1828 -4176 9 -343 46 -599 122 -855 287 -970 1074 -1655 2318 -2019
359 -105 819 -185 1282 -223 210 -17 833 -17 1035 0 1045 89 1900 404 2534
933 124 104 344 333 439 457 323 423 507 892 579 1482 19 151 15 634 -6 829
-37 346 -85 613 -167 929 -319 1230 -1010 2301 -1890 2931 -121 87 -293 195
-383 242 -36 19 -66 36 -66 39 0 3 33 27 72 55 202 138 432 352 587 545 432
536 640 1175 599 1839 -52 862 -447 1566 -1133 2017 -367 242 -803 397 -1285
459 -117 15 -540 28 -620 19z m-1316 -4963 l29 -19 -54 -27 c-197 -101 -464
-280 -680 -460 -133 -110 -375 -342 -463 -444 -25 -29 -46 -51 -46 -48 0 10
181 241 259 331 192 219 461 430 791 620 63 36 120 66 125 66 6 0 23 -9 39
-19z m3167 -27 c208 -115 425 -271 578 -419 91 -88 281 -305 281 -322 0 -4
-15 9 -33 29 -45 52 -204 196 -318 288 -179 146 -396 292 -577 388 l-84 45 29
18 c15 10 31 19 34 19 4 0 44 -21 90 -46z"/>
</g>
</svg>
